<mxfile host="app.diagrams.net" agent="Mozilla/5.0 (Windows NT 10.0; Win64; x64) AppleWebKit/537.36 (KHTML, like Gecko) Chrome/131.0.0.0 Safari/537.36" version="26.0.2">
  <diagram name="Page-1" id="bHiY7E8MZXqaX8_W893R">
    <mxGraphModel dx="2170" dy="1773" grid="1" gridSize="10" guides="1" tooltips="1" connect="1" arrows="1" fold="1" page="1" pageScale="1" pageWidth="850" pageHeight="1100" math="0" shadow="0">
      <root>
        <mxCell id="0" />
        <mxCell id="1" parent="0" />
        <mxCell id="ul5OAk2x1ltRjNjxx2wc-6" value="" style="endArrow=classic;html=1;rounded=0;entryX=0;entryY=0.5;entryDx=0;entryDy=0;" edge="1" parent="1" target="ul5OAk2x1ltRjNjxx2wc-93">
          <mxGeometry width="50" height="50" relative="1" as="geometry">
            <mxPoint x="400" y="180" as="sourcePoint" />
            <mxPoint x="480" y="180" as="targetPoint" />
            <Array as="points">
              <mxPoint x="480" y="180" />
              <mxPoint x="480" y="60" />
            </Array>
          </mxGeometry>
        </mxCell>
        <mxCell id="ul5OAk2x1ltRjNjxx2wc-7" value="" style="endArrow=classic;html=1;rounded=0;entryX=0;entryY=0.5;entryDx=0;entryDy=0;" edge="1" parent="1" target="ul5OAk2x1ltRjNjxx2wc-95">
          <mxGeometry width="50" height="50" relative="1" as="geometry">
            <mxPoint x="400" y="219.76" as="sourcePoint" />
            <mxPoint x="480" y="219.76" as="targetPoint" />
            <Array as="points">
              <mxPoint x="480" y="220" />
              <mxPoint x="560" y="220" />
              <mxPoint x="560" y="180" />
            </Array>
          </mxGeometry>
        </mxCell>
        <mxCell id="ul5OAk2x1ltRjNjxx2wc-8" value="" style="endArrow=classic;html=1;rounded=0;entryX=0;entryY=0.5;entryDx=0;entryDy=0;" edge="1" parent="1" target="ul5OAk2x1ltRjNjxx2wc-99">
          <mxGeometry width="50" height="50" relative="1" as="geometry">
            <mxPoint x="400" y="259.76" as="sourcePoint" />
            <mxPoint x="480" y="259.76" as="targetPoint" />
            <Array as="points">
              <mxPoint x="560" y="260" />
              <mxPoint x="560" y="300" />
            </Array>
          </mxGeometry>
        </mxCell>
        <mxCell id="ul5OAk2x1ltRjNjxx2wc-9" value="" style="endArrow=classic;html=1;rounded=0;entryX=0.075;entryY=0.538;entryDx=0;entryDy=0;entryPerimeter=0;" edge="1" parent="1" target="ul5OAk2x1ltRjNjxx2wc-101">
          <mxGeometry width="50" height="50" relative="1" as="geometry">
            <mxPoint x="400" y="299.76" as="sourcePoint" />
            <mxPoint x="480" y="299.76" as="targetPoint" />
            <Array as="points">
              <mxPoint x="480" y="300" />
              <mxPoint x="480" y="420" />
            </Array>
          </mxGeometry>
        </mxCell>
        <mxCell id="ul5OAk2x1ltRjNjxx2wc-10" value="" style="rounded=0;whiteSpace=wrap;html=1;" vertex="1" parent="1">
          <mxGeometry x="-660" y="160" width="40" height="40" as="geometry" />
        </mxCell>
        <mxCell id="ul5OAk2x1ltRjNjxx2wc-11" value="" style="rounded=0;whiteSpace=wrap;html=1;" vertex="1" parent="1">
          <mxGeometry x="-660" y="200" width="40" height="40" as="geometry" />
        </mxCell>
        <mxCell id="ul5OAk2x1ltRjNjxx2wc-12" value="" style="rounded=0;whiteSpace=wrap;html=1;fillColor=#fff2cc;strokeColor=#d6b656;" vertex="1" parent="1">
          <mxGeometry x="-660" y="240" width="40" height="40" as="geometry" />
        </mxCell>
        <mxCell id="ul5OAk2x1ltRjNjxx2wc-13" value="" style="rounded=0;whiteSpace=wrap;html=1;fillColor=#dae8fc;strokeColor=#6c8ebf;" vertex="1" parent="1">
          <mxGeometry x="-660" y="280" width="40" height="40" as="geometry" />
        </mxCell>
        <mxCell id="ul5OAk2x1ltRjNjxx2wc-14" value="" style="rounded=0;whiteSpace=wrap;html=1;fillColor=#dae8fc;strokeColor=#6c8ebf;" vertex="1" parent="1">
          <mxGeometry x="-660" y="320" width="40" height="40" as="geometry" />
        </mxCell>
        <mxCell id="ul5OAk2x1ltRjNjxx2wc-15" value="" style="rounded=0;whiteSpace=wrap;html=1;fillColor=#dae8fc;strokeColor=#6c8ebf;" vertex="1" parent="1">
          <mxGeometry x="-620" y="160" width="40" height="40" as="geometry" />
        </mxCell>
        <mxCell id="ul5OAk2x1ltRjNjxx2wc-16" value="" style="rounded=0;whiteSpace=wrap;html=1;fillColor=#dae8fc;strokeColor=#6c8ebf;" vertex="1" parent="1">
          <mxGeometry x="-620" y="200" width="40" height="40" as="geometry" />
        </mxCell>
        <mxCell id="ul5OAk2x1ltRjNjxx2wc-17" value="" style="rounded=0;whiteSpace=wrap;html=1;" vertex="1" parent="1">
          <mxGeometry x="-620" y="240" width="40" height="40" as="geometry" />
        </mxCell>
        <mxCell id="ul5OAk2x1ltRjNjxx2wc-18" value="" style="rounded=0;whiteSpace=wrap;html=1;fillColor=#dae8fc;strokeColor=#6c8ebf;" vertex="1" parent="1">
          <mxGeometry x="-620" y="280" width="40" height="40" as="geometry" />
        </mxCell>
        <mxCell id="ul5OAk2x1ltRjNjxx2wc-19" value="" style="rounded=0;whiteSpace=wrap;html=1;fillColor=#dae8fc;strokeColor=#6c8ebf;" vertex="1" parent="1">
          <mxGeometry x="-620" y="320" width="40" height="40" as="geometry" />
        </mxCell>
        <mxCell id="ul5OAk2x1ltRjNjxx2wc-20" value="" style="rounded=0;whiteSpace=wrap;html=1;fillColor=#fff2cc;strokeColor=#d6b656;" vertex="1" parent="1">
          <mxGeometry x="-580" y="160" width="40" height="40" as="geometry" />
        </mxCell>
        <mxCell id="ul5OAk2x1ltRjNjxx2wc-21" value="" style="rounded=0;whiteSpace=wrap;html=1;" vertex="1" parent="1">
          <mxGeometry x="-580" y="200" width="40" height="40" as="geometry" />
        </mxCell>
        <mxCell id="ul5OAk2x1ltRjNjxx2wc-22" value="" style="rounded=0;whiteSpace=wrap;html=1;fillColor=#fff2cc;strokeColor=#d6b656;" vertex="1" parent="1">
          <mxGeometry x="-580" y="240" width="40" height="40" as="geometry" />
        </mxCell>
        <mxCell id="ul5OAk2x1ltRjNjxx2wc-23" value="" style="rounded=0;whiteSpace=wrap;html=1;" vertex="1" parent="1">
          <mxGeometry x="-580" y="280" width="40" height="40" as="geometry" />
        </mxCell>
        <mxCell id="ul5OAk2x1ltRjNjxx2wc-24" value="" style="rounded=0;whiteSpace=wrap;html=1;fillColor=#fff2cc;strokeColor=#d6b656;" vertex="1" parent="1">
          <mxGeometry x="-580" y="320" width="40" height="40" as="geometry" />
        </mxCell>
        <mxCell id="ul5OAk2x1ltRjNjxx2wc-25" value="" style="rounded=0;whiteSpace=wrap;html=1;fillColor=#dae8fc;strokeColor=#6c8ebf;" vertex="1" parent="1">
          <mxGeometry x="-540" y="160" width="40" height="40" as="geometry" />
        </mxCell>
        <mxCell id="ul5OAk2x1ltRjNjxx2wc-26" value="" style="rounded=0;whiteSpace=wrap;html=1;fillColor=#dae8fc;strokeColor=#6c8ebf;" vertex="1" parent="1">
          <mxGeometry x="-540" y="200" width="40" height="40" as="geometry" />
        </mxCell>
        <mxCell id="ul5OAk2x1ltRjNjxx2wc-27" value="" style="rounded=0;whiteSpace=wrap;html=1;" vertex="1" parent="1">
          <mxGeometry x="-540" y="240" width="40" height="40" as="geometry" />
        </mxCell>
        <mxCell id="ul5OAk2x1ltRjNjxx2wc-28" value="" style="rounded=0;whiteSpace=wrap;html=1;fillColor=#dae8fc;strokeColor=#6c8ebf;" vertex="1" parent="1">
          <mxGeometry x="-540" y="280" width="40" height="40" as="geometry" />
        </mxCell>
        <mxCell id="ul5OAk2x1ltRjNjxx2wc-29" value="" style="rounded=0;whiteSpace=wrap;html=1;fillColor=#dae8fc;strokeColor=#6c8ebf;" vertex="1" parent="1">
          <mxGeometry x="-540" y="320" width="40" height="40" as="geometry" />
        </mxCell>
        <mxCell id="ul5OAk2x1ltRjNjxx2wc-30" value="" style="rounded=0;whiteSpace=wrap;html=1;fillColor=#dae8fc;strokeColor=#6c8ebf;" vertex="1" parent="1">
          <mxGeometry x="-500" y="160" width="40" height="40" as="geometry" />
        </mxCell>
        <mxCell id="ul5OAk2x1ltRjNjxx2wc-31" value="" style="rounded=0;whiteSpace=wrap;html=1;fillColor=#dae8fc;strokeColor=#6c8ebf;" vertex="1" parent="1">
          <mxGeometry x="-500" y="200" width="40" height="40" as="geometry" />
        </mxCell>
        <mxCell id="ul5OAk2x1ltRjNjxx2wc-32" value="" style="rounded=0;whiteSpace=wrap;html=1;fillColor=#fff2cc;strokeColor=#d6b656;" vertex="1" parent="1">
          <mxGeometry x="-500" y="240" width="40" height="40" as="geometry" />
        </mxCell>
        <mxCell id="ul5OAk2x1ltRjNjxx2wc-33" value="" style="rounded=0;whiteSpace=wrap;html=1;fillColor=#dae8fc;strokeColor=#6c8ebf;" vertex="1" parent="1">
          <mxGeometry x="-500" y="280" width="40" height="40" as="geometry" />
        </mxCell>
        <mxCell id="ul5OAk2x1ltRjNjxx2wc-34" value="" style="rounded=0;whiteSpace=wrap;html=1;fillColor=#dae8fc;strokeColor=#6c8ebf;" vertex="1" parent="1">
          <mxGeometry x="-500" y="320" width="40" height="40" as="geometry" />
        </mxCell>
        <mxCell id="ul5OAk2x1ltRjNjxx2wc-35" value="" style="endArrow=classic;html=1;rounded=0;exitX=1;exitY=0.5;exitDx=0;exitDy=0;entryX=-0.007;entryY=0.356;entryDx=0;entryDy=0;entryPerimeter=0;" edge="1" parent="1" source="ul5OAk2x1ltRjNjxx2wc-32" target="ul5OAk2x1ltRjNjxx2wc-36">
          <mxGeometry width="50" height="50" relative="1" as="geometry">
            <mxPoint x="-380" y="280" as="sourcePoint" />
            <mxPoint x="-360" y="140" as="targetPoint" />
            <Array as="points">
              <mxPoint x="-400" y="260" />
              <mxPoint x="-400" y="140" />
            </Array>
          </mxGeometry>
        </mxCell>
        <mxCell id="ul5OAk2x1ltRjNjxx2wc-36" value="" style="rounded=0;whiteSpace=wrap;html=1;dashed=1;dashPattern=8 8;" vertex="1" parent="1">
          <mxGeometry x="-190" y="-20" width="210" height="450" as="geometry" />
        </mxCell>
        <mxCell id="ul5OAk2x1ltRjNjxx2wc-39" value="interpolation_R_2" style="rounded=0;whiteSpace=wrap;html=1;" vertex="1" parent="1">
          <mxGeometry x="-360" y="460" width="120" height="60" as="geometry" />
        </mxCell>
        <mxCell id="ul5OAk2x1ltRjNjxx2wc-41" value="" style="endArrow=classic;html=1;rounded=0;exitX=1;exitY=0.5;exitDx=0;exitDy=0;entryX=0;entryY=0.5;entryDx=0;entryDy=0;" edge="1" parent="1" source="ul5OAk2x1ltRjNjxx2wc-32" target="ul5OAk2x1ltRjNjxx2wc-39">
          <mxGeometry width="50" height="50" relative="1" as="geometry">
            <mxPoint x="-380" y="310" as="sourcePoint" />
            <mxPoint x="-330" y="260" as="targetPoint" />
            <Array as="points">
              <mxPoint x="-400" y="260" />
              <mxPoint x="-400" y="360" />
              <mxPoint x="-400" y="490" />
            </Array>
          </mxGeometry>
        </mxCell>
        <mxCell id="ul5OAk2x1ltRjNjxx2wc-44" value="R_2 = R_1 - 1" style="text;html=1;align=center;verticalAlign=middle;whiteSpace=wrap;rounded=0;" vertex="1" parent="1">
          <mxGeometry x="-470" y="-10" width="120" height="30" as="geometry" />
        </mxCell>
        <mxCell id="ul5OAk2x1ltRjNjxx2wc-46" value="interpolation_calc" style="rounded=0;whiteSpace=wrap;html=1;" vertex="1" parent="1">
          <mxGeometry x="-160" width="160" height="40" as="geometry" />
        </mxCell>
        <mxCell id="ul5OAk2x1ltRjNjxx2wc-47" value="" style="rounded=0;whiteSpace=wrap;html=1;fillColor=#dae8fc;strokeColor=#6c8ebf;" vertex="1" parent="1">
          <mxGeometry x="-660" y="160" width="40" height="40" as="geometry" />
        </mxCell>
        <mxCell id="ul5OAk2x1ltRjNjxx2wc-48" value="" style="rounded=0;whiteSpace=wrap;html=1;fillColor=#dae8fc;strokeColor=#6c8ebf;" vertex="1" parent="1">
          <mxGeometry x="-660" y="200" width="40" height="40" as="geometry" />
        </mxCell>
        <mxCell id="ul5OAk2x1ltRjNjxx2wc-49" value="interpolation_calc" style="rounded=0;whiteSpace=wrap;html=1;" vertex="1" parent="1">
          <mxGeometry x="-160" y="80" width="160" height="40" as="geometry" />
        </mxCell>
        <mxCell id="ul5OAk2x1ltRjNjxx2wc-50" value="interpolation_calc" style="rounded=0;whiteSpace=wrap;html=1;" vertex="1" parent="1">
          <mxGeometry x="-160" y="160" width="160" height="40" as="geometry" />
        </mxCell>
        <mxCell id="ul5OAk2x1ltRjNjxx2wc-51" value="interpolation_calc" style="rounded=0;whiteSpace=wrap;html=1;" vertex="1" parent="1">
          <mxGeometry x="-160" y="240" width="160" height="40" as="geometry" />
        </mxCell>
        <mxCell id="ul5OAk2x1ltRjNjxx2wc-61" value="" style="group" vertex="1" connectable="0" parent="1">
          <mxGeometry x="-160" y="340" width="40" height="40" as="geometry" />
        </mxCell>
        <mxCell id="ul5OAk2x1ltRjNjxx2wc-45" value="" style="rounded=0;whiteSpace=wrap;html=1;" vertex="1" parent="ul5OAk2x1ltRjNjxx2wc-61">
          <mxGeometry width="40" height="40" as="geometry" />
        </mxCell>
        <mxCell id="ul5OAk2x1ltRjNjxx2wc-60" value="" style="triangle;whiteSpace=wrap;html=1;direction=north;" vertex="1" parent="ul5OAk2x1ltRjNjxx2wc-61">
          <mxGeometry x="10" y="30" width="20" height="10" as="geometry" />
        </mxCell>
        <mxCell id="ul5OAk2x1ltRjNjxx2wc-65" value="" style="group" vertex="1" connectable="0" parent="1">
          <mxGeometry x="-40" y="340" width="40" height="40" as="geometry" />
        </mxCell>
        <mxCell id="ul5OAk2x1ltRjNjxx2wc-66" value="" style="rounded=0;whiteSpace=wrap;html=1;" vertex="1" parent="ul5OAk2x1ltRjNjxx2wc-65">
          <mxGeometry width="40" height="40" as="geometry" />
        </mxCell>
        <mxCell id="ul5OAk2x1ltRjNjxx2wc-67" value="" style="triangle;whiteSpace=wrap;html=1;direction=north;" vertex="1" parent="ul5OAk2x1ltRjNjxx2wc-65">
          <mxGeometry x="10" y="30" width="20" height="10" as="geometry" />
        </mxCell>
        <mxCell id="ul5OAk2x1ltRjNjxx2wc-68" value="" style="endArrow=none;dashed=1;html=1;dashPattern=1 3;strokeWidth=2;rounded=0;" edge="1" parent="ul5OAk2x1ltRjNjxx2wc-65">
          <mxGeometry width="50" height="50" relative="1" as="geometry">
            <mxPoint x="-60" y="20" as="sourcePoint" />
            <mxPoint x="-20" y="20" as="targetPoint" />
          </mxGeometry>
        </mxCell>
        <mxCell id="ul5OAk2x1ltRjNjxx2wc-70" value="" style="endArrow=classic;html=1;rounded=0;exitX=1;exitY=0.5;exitDx=0;exitDy=0;" edge="1" parent="1" source="ul5OAk2x1ltRjNjxx2wc-46">
          <mxGeometry width="50" height="50" relative="1" as="geometry">
            <mxPoint x="200" y="150" as="sourcePoint" />
            <mxPoint x="80" y="20" as="targetPoint" />
          </mxGeometry>
        </mxCell>
        <mxCell id="ul5OAk2x1ltRjNjxx2wc-71" value="" style="endArrow=classic;html=1;rounded=0;exitX=1;exitY=0.5;exitDx=0;exitDy=0;" edge="1" parent="1">
          <mxGeometry width="50" height="50" relative="1" as="geometry">
            <mxPoint y="99.8" as="sourcePoint" />
            <mxPoint x="80" y="99.8" as="targetPoint" />
          </mxGeometry>
        </mxCell>
        <mxCell id="ul5OAk2x1ltRjNjxx2wc-72" value="" style="endArrow=classic;html=1;rounded=0;exitX=1;exitY=0.5;exitDx=0;exitDy=0;" edge="1" parent="1">
          <mxGeometry width="50" height="50" relative="1" as="geometry">
            <mxPoint y="179.8" as="sourcePoint" />
            <mxPoint x="80" y="179.8" as="targetPoint" />
          </mxGeometry>
        </mxCell>
        <mxCell id="ul5OAk2x1ltRjNjxx2wc-73" value="" style="endArrow=classic;html=1;rounded=0;exitX=1;exitY=0.5;exitDx=0;exitDy=0;" edge="1" parent="1">
          <mxGeometry width="50" height="50" relative="1" as="geometry">
            <mxPoint y="259.8" as="sourcePoint" />
            <mxPoint x="80" y="259.8" as="targetPoint" />
          </mxGeometry>
        </mxCell>
        <mxCell id="ul5OAk2x1ltRjNjxx2wc-74" value="value_45&lt;span style=&quot;color: rgba(0, 0, 0, 0); font-family: monospace; font-size: 0px; text-align: start; text-wrap-mode: nowrap;&quot;&gt;%3CmxGraphModel%3E%3Croot%3E%3CmxCell%20id%3D%220%22%2F%3E%3CmxCell%20id%3D%221%22%20parent%3D%220%22%2F%3E%3CmxCell%20id%3D%222%22%20value%3D%22%22%20style%3D%22endArrow%3Dclassic%3Bhtml%3D1%3Brounded%3D0%3BexitX%3D1%3BexitY%3D0.5%3BexitDx%3D0%3BexitDy%3D0%3B%22%20edge%3D%221%22%20parent%3D%221%22%3E%3CmxGeometry%20width%3D%2250%22%20height%3D%2250%22%20relative%3D%221%22%20as%3D%22geometry%22%3E%3CmxPoint%20y%3D%22179.8%22%20as%3D%22sourcePoint%22%2F%3E%3CmxPoint%20x%3D%2280%22%20y%3D%22179.8%22%20as%3D%22targetPoint%22%2F%3E%3C%2FmxGeometry%3E%3C%2FmxCell%3E%3C%2Froot%3E%3C%2FmxGraphModel%3E&lt;/span&gt;" style="text;html=1;align=center;verticalAlign=middle;whiteSpace=wrap;rounded=0;" vertex="1" parent="1">
          <mxGeometry x="20" y="-20" width="60" height="30" as="geometry" />
        </mxCell>
        <mxCell id="ul5OAk2x1ltRjNjxx2wc-75" value="value_135&lt;span style=&quot;color: rgba(0, 0, 0, 0); font-family: monospace; font-size: 0px; text-align: start; text-wrap-mode: nowrap;&quot;&gt;%3CmxGraphModel%3E%3Croot%3E%3CmxCell%20id%3D%220%22%2F%3E%3CmxCell%20id%3D%221%22%20parent%3D%220%22%2F%3E%3CmxCell%20id%3D%222%22%20value%3D%22%22%20style%3D%22endArrow%3Dclassic%3Bhtml%3D1%3Brounded%3D0%3BexitX%3D1%3BexitY%3D0.5%3BexitDx%3D0%3BexitDy%3D0%3B%22%20edge%3D%221%22%20parent%3D%221%22%3E%3CmxGeometry%20width%3D%2250%22%20height%3D%2250%22%20relative%3D%221%22%20as%3D%22geometry%22%3E%3CmxPoint%20y%3D%22179.8%22%20as%3D%22sourcePoint%22%2F%3E%3CmxPoint%20x%3D%2280%22%20y%3D%22179.8%22%20as%3D%22targetPoint%22%2F%3E%3C%2FmxGeometry%3E%3C%2FmxCell%3E%3C%2Froot%3E%3C%2FmxGraphModel%3E&lt;/span&gt;" style="text;html=1;align=center;verticalAlign=middle;whiteSpace=wrap;rounded=0;" vertex="1" parent="1">
          <mxGeometry x="20" y="70" width="60" height="30" as="geometry" />
        </mxCell>
        <mxCell id="ul5OAk2x1ltRjNjxx2wc-77" value="value_22&lt;span style=&quot;color: rgba(0, 0, 0, 0); font-family: monospace; font-size: 0px; text-align: start; text-wrap-mode: nowrap;&quot;&gt;%3CmxGraphModel%3E%3Croot%3E%3CmxCell%20id%3D%220%22%2F%3E%3CmxCell%20id%3D%221%22%20parent%3D%220%22%2F%3E%3CmxCell%20id%3D%222%22%20value%3D%22value_135%26lt%3Bspan%20style%3D%26quot%3Bcolor%3A%20rgba(0%2C%200%2C%200%2C%200)%3B%20font-family%3A%20monospace%3B%20font-size%3A%200px%3B%20text-align%3A%20start%3B%20text-wrap-mode%3A%20nowrap%3B%26quot%3B%26gt%3B%253CmxGraphModel%253E%253Croot%253E%253CmxCell%2520id%253D%25220%2522%252F%253E%253CmxCell%2520id%253D%25221%2522%2520parent%253D%25220%2522%252F%253E%253CmxCell%2520id%253D%25222%2522%2520value%253D%2522%2522%2520style%253D%2522endArrow%253Dclassic%253Bhtml%253D1%253Brounded%253D0%253BexitX%253D1%253BexitY%253D0.5%253BexitDx%253D0%253BexitDy%253D0%253B%2522%2520edge%253D%25221%2522%2520parent%253D%25221%2522%253E%253CmxGeometry%2520width%253D%252250%2522%2520height%253D%252250%2522%2520relative%253D%25221%2522%2520as%253D%2522geometry%2522%253E%253CmxPoint%2520y%253D%2522179.8%2522%2520as%253D%2522sourcePoint%2522%252F%253E%253CmxPoint%2520x%253D%252280%2522%2520y%253D%2522179.8%2522%2520as%253D%2522targetPoint%2522%252F%253E%253C%252FmxGeometry%253E%253C%252FmxCell%253E%253C%252Froot%253E%253C%252FmxGraphModel%253E%26lt%3B%2Fspan%26gt%3B%22%20style%3D%22text%3Bhtml%3D1%3Balign%3Dcenter%3BverticalAlign%3Dmiddle%3BwhiteSpace%3Dwrap%3Brounded%3D0%3B%22%20vertex%3D%221%22%20parent%3D%221%22%3E%3CmxGeometry%20x%3D%2220%22%20y%3D%2270%22%20width%3D%2260%22%20height%3D%2230%22%20as%3D%22geometry%22%2F%3E%3C%2FmxCell%3E%3C%2Froot%3E%3C%2FmxGraphModel%3E&lt;/span&gt;5&lt;span style=&quot;color: rgba(0, 0, 0, 0); font-family: monospace; font-size: 0px; text-align: start; text-wrap-mode: nowrap;&quot;&gt;%3CmxGraphModel%3E%3Croot%3E%3CmxCell%20id%3D%220%22%2F%3E%3CmxCell%20id%3D%221%22%20parent%3D%220%22%2F%3E%3CmxCell%20id%3D%222%22%20value%3D%22%22%20style%3D%22endArrow%3Dclassic%3Bhtml%3D1%3Brounded%3D0%3BexitX%3D1%3BexitY%3D0.5%3BexitDx%3D0%3BexitDy%3D0%3B%22%20edge%3D%221%22%20parent%3D%221%22%3E%3CmxGeometry%20width%3D%2250%22%20height%3D%2250%22%20relative%3D%221%22%20as%3D%22geometry%22%3E%3CmxPoint%20y%3D%22179.8%22%20as%3D%22sourcePoint%22%2F%3E%3CmxPoint%20x%3D%2280%22%20y%3D%22179.8%22%20as%3D%22targetPoint%22%2F%3E%3C%2FmxGeometry%3E%3C%2FmxCell%3E%3C%2Froot%3E%3C%2FmxGraphMod&lt;/span&gt;" style="text;html=1;align=center;verticalAlign=middle;whiteSpace=wrap;rounded=0;" vertex="1" parent="1">
          <mxGeometry x="20" y="150" width="60" height="30" as="geometry" />
        </mxCell>
        <mxCell id="ul5OAk2x1ltRjNjxx2wc-78" value="value_315&lt;span style=&quot;color: rgba(0, 0, 0, 0); font-family: monospace; font-size: 0px; text-align: start; text-wrap-mode: nowrap;&quot;&gt;%3CmxGraphModel%3E%3Croot%3E%3CmxCell%20id%3D%220%22%2F%3E%3CmxCell%20id%3D%221%22%20parent%3D%220%22%2F%3E%3CmxCell%20id%3D%222%22%20value%3D%22%22%20style%3D%22endArrow%3Dclassic%3Bhtml%3D1%3Brounded%3D0%3BexitX%3D1%3BexitY%3D0.5%3BexitDx%3D0%3BexitDy%3D0%3B%22%20edge%3D%221%22%20parent%3D%221%22%3E%3CmxGeometry%20width%3D%2250%22%20height%3D%2250%22%20relative%3D%221%22%20as%3D%22geometry%22%3E%3CmxPoint%20y%3D%22179.8%22%20as%3D%22sourcePoint%22%2F%3E%3CmxPoint%20x%3D%2280%22%20y%3D%22179.8%22%20as%3D%22targetPoint%22%2F%3E%3C%2FmxGeometry%3E%3C%2FmxCell%3E%3C%2Froot%3E%3C%2FmxGraphModel%3E&lt;/span&gt;" style="text;html=1;align=center;verticalAlign=middle;whiteSpace=wrap;rounded=0;" vertex="1" parent="1">
          <mxGeometry x="20" y="230" width="60" height="30" as="geometry" />
        </mxCell>
        <mxCell id="ul5OAk2x1ltRjNjxx2wc-79" value="" style="endArrow=classic;html=1;rounded=0;exitX=1;exitY=0.5;exitDx=0;exitDy=0;" edge="1" parent="1" source="ul5OAk2x1ltRjNjxx2wc-66">
          <mxGeometry width="50" height="50" relative="1" as="geometry">
            <mxPoint x="80" y="400" as="sourcePoint" />
            <mxPoint x="80" y="360" as="targetPoint" />
          </mxGeometry>
        </mxCell>
        <mxCell id="ul5OAk2x1ltRjNjxx2wc-81" value="S_0, S_90, S_180, S_360, S_center" style="text;html=1;align=center;verticalAlign=middle;whiteSpace=wrap;rounded=0;" vertex="1" parent="1">
          <mxGeometry x="10" y="310" width="130" height="30" as="geometry" />
        </mxCell>
        <mxCell id="ul5OAk2x1ltRjNjxx2wc-93" value="*" style="rounded=0;whiteSpace=wrap;html=1;" vertex="1" parent="1">
          <mxGeometry x="600" y="40" width="40" height="40" as="geometry" />
        </mxCell>
        <mxCell id="ul5OAk2x1ltRjNjxx2wc-94" value="" style="triangle;whiteSpace=wrap;html=1;direction=north;" vertex="1" parent="1">
          <mxGeometry x="610" y="70" width="20" height="10" as="geometry" />
        </mxCell>
        <mxCell id="ul5OAk2x1ltRjNjxx2wc-95" value="*" style="rounded=0;whiteSpace=wrap;html=1;" vertex="1" parent="1">
          <mxGeometry x="600" y="160" width="40" height="40" as="geometry" />
        </mxCell>
        <mxCell id="ul5OAk2x1ltRjNjxx2wc-96" value="" style="triangle;whiteSpace=wrap;html=1;direction=north;" vertex="1" parent="1">
          <mxGeometry x="610" y="190" width="20" height="10" as="geometry" />
        </mxCell>
        <mxCell id="ul5OAk2x1ltRjNjxx2wc-98" value="&lt;span style=&quot;color: rgb(0, 0, 0); font-family: Helvetica; font-size: 12px; font-style: normal; font-variant-ligatures: normal; font-variant-caps: normal; font-weight: 400; letter-spacing: normal; orphans: 2; text-align: center; text-indent: 0px; text-transform: none; widows: 2; word-spacing: 0px; -webkit-text-stroke-width: 0px; white-space: normal; background-color: rgb(251, 251, 251); text-decoration-thickness: initial; text-decoration-style: initial; text-decoration-color: initial; display: inline !important; float: none;&quot;&gt;interpolation_R_1&lt;/span&gt;" style="text;whiteSpace=wrap;html=1;" vertex="1" parent="1">
          <mxGeometry x="-120" y="-50" width="100" height="30" as="geometry" />
        </mxCell>
        <mxCell id="ul5OAk2x1ltRjNjxx2wc-99" value="*" style="rounded=0;whiteSpace=wrap;html=1;" vertex="1" parent="1">
          <mxGeometry x="600" y="280" width="40" height="40" as="geometry" />
        </mxCell>
        <mxCell id="ul5OAk2x1ltRjNjxx2wc-100" value="" style="triangle;whiteSpace=wrap;html=1;direction=north;" vertex="1" parent="1">
          <mxGeometry x="610" y="310" width="20" height="10" as="geometry" />
        </mxCell>
        <mxCell id="ul5OAk2x1ltRjNjxx2wc-101" value="*" style="rounded=0;whiteSpace=wrap;html=1;" vertex="1" parent="1">
          <mxGeometry x="600" y="400" width="40" height="40" as="geometry" />
        </mxCell>
        <mxCell id="ul5OAk2x1ltRjNjxx2wc-102" value="" style="triangle;whiteSpace=wrap;html=1;direction=north;" vertex="1" parent="1">
          <mxGeometry x="610" y="430" width="20" height="10" as="geometry" />
        </mxCell>
      </root>
    </mxGraphModel>
  </diagram>
</mxfile>
